<?xml version="1.0" encoding="iso-8859-1"?>
<!-- Uploaded to: SVG Repo, www.svgrepo.com, Generator: SVG Repo Mixer Tools -->
<svg height="800px" width="800px" version="1.1" id="Layer_1" xmlns="http://www.w3.org/2000/svg" xmlns:xlink="http://www.w3.org/1999/xlink" 
	 viewBox="0 0 512 512" xml:space="preserve">
<path style="fill:#7DDCD4;" d="M510.073,287.465C511.338,277.152,512,266.654,512,256C512,114.616,397.384,0,256,0S0,114.616,0,256
	c0,117.795,79.565,216.991,187.88,246.82L510.073,287.465z"/>
<path style="fill:#02C8A7;" d="M510.073,287.465l-69.308-69.308L256,114.592L71.235,218.157l61.774,61.774l-32.835,135.184
	l87.706,87.706C209.572,508.793,232.41,512,256,512C386.731,512,494.563,414.004,510.073,287.465z"/>
<polygon style="fill:#FDE59A;" points="440.765,218.157 256,33.391 215.406,224.253 256,415.114 411.826,415.114 411.826,218.157 
	"/>
<g>
	<polygon style="fill:#FEF2CC;" points="71.235,218.157 100.174,218.157 100.174,415.114 256,415.114 256,33.391 	"/>
	<polygon style="fill:#FEF2CC;" points="389.565,193.828 389.565,388.243 256,388.243 222.609,218.374 256,60.262 	"/>
</g>
<polygon style="fill:#FFFFFF;" points="256,60.262 256,388.243 122.435,388.243 122.435,193.828 "/>
<path style="fill:#02AF92;" d="M311.092,366.744l-11.13-11.13l11.13-11.13c12.275,0,22.261-9.986,22.261-22.261
	s-9.986-22.261-22.261-22.261l-11.13-11.13l11.13-11.13c24.549,0,44.522,19.972,44.522,44.522S335.642,366.744,311.092,366.744z"/>
<path style="fill:#40D2BE;" d="M311.092,366.744c-24.549,0-44.522-19.972-44.522-44.522s19.972-44.522,44.522-44.522v22.261
	c-12.275,0-22.261,9.986-22.261,22.261s9.986,22.261,22.261,22.261V366.744z"/>
<path style="fill:#02C8A7;" d="M200.908,256.56l-11.13-11.13l11.13-11.13c12.275,0,22.261-9.986,22.261-22.261
	s-9.986-22.261-22.261-22.261l-11.13-11.13l11.13-11.13c24.549,0,44.522,19.972,44.522,44.522S225.457,256.56,200.908,256.56z"/>
<path style="fill:#7DDCD4;" d="M200.908,256.56c-24.549,0-44.522-19.972-44.522-44.522s19.972-44.522,44.522-44.522v22.261
	c-12.275,0-22.261,9.986-22.261,22.261s9.986,22.261,22.261,22.261V256.56z"/>
<polygon style="fill:#02AF92;" points="336.217,202.652 256,282.869 244.87,273.965 256,251.392 320.479,186.913 "/>
<polygon style="fill:#7DDCD4;" points="256,251.392 256,282.869 191.521,347.347 175.783,331.609 "/>
</svg>